<svg width="120" height="120" viewBox="0 0 120 120" fill="none" xmlns="http://www.w3.org/2000/svg">
<path d="M21.75 92.25L22.3875 91.3613L52.4625 34.3088L52.5262 33.705L39.27 8.80502C39.0273 8.34968 38.6476 7.98218 38.1846 7.75451C37.7215 7.52684 37.1987 7.45052 36.6899 7.53635C36.1811 7.62219 35.7122 7.86583 35.3495 8.23281C34.9868 8.59978 34.7486 9.07152 34.6687 9.58127L21.75 92.25Z" fill="#FFC24A"/>
<path d="M22.125 91.575L22.605 90.6375L52.3688 34.1775L39.1463 9.17995C38.9282 8.74523 38.5752 8.39285 38.14 8.17563C37.7049 7.9584 37.2111 7.88802 36.7326 7.97502C36.2541 8.06202 35.8166 8.30172 35.4858 8.65821C35.155 9.01471 34.9486 9.4688 34.8975 9.95245L22.125 91.575Z" fill="#FFA712"/>
<path d="M62.19 52.5375L72.06 42.4125L62.1862 23.5838C61.9689 23.1786 61.6458 22.8399 61.2512 22.6037C60.8566 22.3676 60.4054 22.2429 59.9456 22.2429C59.4858 22.2429 59.0346 22.3676 58.64 22.6037C58.2454 22.8399 57.9223 23.1786 57.705 23.5838L52.4287 33.6413V34.5L62.19 52.5375Z" fill="#F4BD62"/>
<path d="M62.0139 52.125L71.6101 42.3L62.0139 24C61.8568 23.6039 61.5885 23.2616 61.2413 23.0145C60.8942 22.7675 60.4829 22.6261 60.0572 22.6075C59.6315 22.5888 59.2095 22.6937 58.842 22.9095C58.4746 23.1254 58.1774 23.4428 57.9864 23.8237L52.6839 34.0575L52.5264 34.5787L62.0139 52.125Z" fill="#FFA50E"/>
<path d="M21.7573 92.2537L22.0461 91.9612L23.0923 91.5375L61.5673 53.205L62.0548 51.8775L52.4586 33.585L21.7573 92.2537V92.2537Z" fill="#F6820C"/>
<path d="M63.42 111.585L98.25 92.1637L88.2975 30.9225C88.2261 30.4907 88.0372 30.087 87.7515 29.7556C87.4657 29.4243 87.0942 29.178 86.6777 29.044C86.2612 28.9099 85.8157 28.8932 85.3903 28.9957C84.9649 29.0982 84.576 29.3159 84.2663 29.625L21.75 92.25L56.3737 111.581C57.4502 112.182 58.6623 112.497 59.895 112.497C61.1277 112.497 62.3398 112.182 63.4162 111.581" fill="#FDE068"/>
<path d="M97.9313 92.0025L88.0613 31.2225C88.0438 30.8095 87.9043 30.4111 87.6603 30.0775C87.4163 29.7439 87.0789 29.4902 86.6906 29.3484C86.3024 29.2067 85.8808 29.1834 85.4793 29.2813C85.0778 29.3793 84.7144 29.5941 84.435 29.8987L22.125 92.1337L56.3663 111.259C57.4341 111.854 58.6366 112.167 59.8594 112.167C61.0822 112.167 62.2846 111.854 63.3525 111.259L97.9313 92.0025Z" fill="#FCCA3F"/>
<path d="M63.42 111C62.3436 111.601 61.1314 111.916 59.8987 111.916C58.6661 111.916 57.4539 111.601 56.3775 111L22.035 91.9575L21.75 92.25L56.3737 111.581C57.4502 112.182 58.6623 112.497 59.895 112.497C61.1277 112.497 62.3398 112.182 63.4162 111.581L98.25 92.1638L98.1637 91.6388L63.42 111Z" fill="#EEAB37"/>
</svg>
