<svg width="120" height="114" viewBox="0 0 120 114" fill="none" xmlns="http://www.w3.org/2000/svg">
<path d="M0 56.7974C0 66.273 8.84919 75.1189 22.8007 80.1049C20.0147 94.7701 22.3014 106.59 29.9391 111.196C37.79 115.93 49.4858 112.653 60.5867 102.507C71.4076 112.243 82.3439 116.075 89.9746 111.456C97.8178 106.709 100.203 94.087 97.3404 78.964C111.872 73.9405 120 66.3977 120 56.7974C120 47.5414 111.134 39.5338 97.3711 34.5796C100.453 18.8316 97.8416 7.29837 89.8877 2.50237C82.2193 -2.12128 71.156 1.9087 60.176 11.9001C48.7532 1.29502 37.799 -1.94286 29.8528 2.86712C22.1918 7.50392 20.0057 19.5388 22.8007 34.4756C9.32028 39.39 0 47.5784 0 56.7974Z" fill="white"/>
<path d="M94.4565 39.4992C93.351 39.1013 92.2054 38.7248 91.0259 38.3688C91.2198 37.5415 91.3977 36.7249 91.5559 35.9222C94.1528 22.7415 92.4549 12.1231 86.6569 8.62701C81.0973 5.27476 72.005 8.77001 62.8223 17.1259C61.9393 17.9294 61.0538 18.7801 60.1687 19.6717C59.5789 19.0818 58.9901 18.5118 58.4028 17.9665C48.779 9.03183 39.1327 5.26663 33.3404 8.77279C27.7861 12.1348 26.1413 22.1171 28.4789 34.6085C28.7046 35.8151 28.9685 37.0472 29.2669 38.3C27.9016 38.7052 26.5836 39.1372 25.3226 39.5967C14.0397 43.7099 6.83398 50.1561 6.83398 56.8425C6.83398 63.7483 14.5693 70.675 26.3213 74.875C27.2487 75.2064 28.211 75.5198 29.2028 75.8173C28.8808 77.1722 28.6009 78.4999 28.3658 79.7949C26.1369 92.0696 27.8776 101.816 33.417 105.157C39.1388 108.607 48.7415 105.061 58.0921 96.5143C58.8311 95.8387 59.5729 95.1223 60.3159 94.3714C61.279 95.3411 62.2405 96.2588 63.197 97.1197C72.2541 105.269 81.1995 108.56 86.7339 105.21C92.4499 101.75 94.3076 91.2798 91.8958 78.5412C91.7116 77.5683 91.4973 76.5744 91.2566 75.5628C91.9309 75.3544 92.593 75.1392 93.2385 74.9154C105.456 70.6829 113.405 63.8406 113.405 56.8425C113.405 50.1319 105.967 43.6422 94.4565 39.4992Z" fill="#53C1DE"/>
<path d="M91.8055 70.3972C91.2227 70.599 90.6248 70.7939 90.0155 70.9829C88.6668 66.5184 86.8465 61.771 84.6189 56.8661C86.7446 52.078 88.4946 47.3913 89.8055 42.9557C90.8957 43.2855 91.9538 43.6334 92.9734 44.0006C102.835 47.5504 108.851 52.7988 108.851 56.8429C108.851 61.1505 102.354 66.7425 91.8055 70.3972ZM87.4285 79.466C88.4949 85.0988 88.6473 90.1916 87.9408 94.1728C87.3061 97.7501 86.0297 100.135 84.4514 101.09C81.0929 103.123 73.9106 100.481 66.1648 93.5115C65.2769 92.7125 64.3825 91.8595 63.4852 90.9566C66.4881 87.5226 69.4893 83.5305 72.4183 79.0969C77.5702 78.6189 82.4376 77.8374 86.8516 76.7705C87.069 77.6874 87.2621 78.5867 87.4285 79.466ZM43.1651 100.739C39.8838 101.951 37.2704 101.986 35.6906 101.033C32.329 99.0059 30.9316 91.1803 32.8378 80.6831C33.0561 79.4809 33.316 78.246 33.6155 76.9837C37.9812 77.9931 42.8129 78.7194 47.9771 79.1572C50.9259 83.4956 54.0138 87.4834 57.1255 90.975C56.4457 91.6613 55.7685 92.3147 55.095 92.9303C50.9603 96.7094 46.8168 99.3907 43.1651 100.739ZM27.7925 70.3709C22.596 68.5137 18.3046 66.1001 15.363 63.4662C12.7198 61.0994 11.3853 58.7496 11.3853 56.8429C11.3853 52.7853 17.1707 47.6099 26.8199 44.0922C27.9907 43.6654 29.2163 43.2631 30.4882 42.8853C31.8218 47.421 33.5712 52.1633 35.6823 56.9587C33.5438 61.8253 31.7696 66.6431 30.423 71.2321C29.5163 70.9595 28.6378 70.6727 27.7925 70.3709ZM32.9456 33.6947C30.9428 22.9923 32.2729 14.9189 35.6201 12.893C39.1854 10.7348 47.0693 13.8119 55.3786 21.5266C55.9098 22.0197 56.443 22.5358 56.9778 23.0697C53.8814 26.5461 50.8218 30.5039 47.8992 34.8167C42.8871 35.3025 38.0893 36.0828 33.6782 37.1277C33.4008 35.9612 33.1552 34.8152 32.9456 33.6947ZM78.9154 45.5635C77.8608 43.659 76.7783 41.7995 75.6746 39.9908C79.0749 40.4402 82.3327 41.0369 85.3921 41.767C84.4736 44.8449 83.3288 48.0631 81.9812 51.3622C81.0145 49.4432 79.9921 47.5083 78.9154 45.5635ZM60.169 26.4717C62.2689 28.8505 64.3719 31.5063 66.4403 34.3879C64.3559 34.285 62.2458 34.2314 60.1181 34.2314C58.0106 34.2314 55.916 34.2838 53.8446 34.3849C55.9151 31.5301 58.0363 28.8779 60.169 26.4717ZM41.3025 45.5965C40.2492 47.5063 39.2457 49.4307 38.2942 51.3586C36.9684 48.071 35.8342 44.8382 34.9077 41.7166C37.9484 41.0051 41.1908 40.4234 44.5695 39.9825C43.4503 41.8078 42.3588 43.681 41.3025 45.5961V45.5965ZM44.6668 74.0428C41.176 73.6356 37.8848 73.0838 34.845 72.392C35.7862 69.2147 36.9454 65.9128 38.2993 62.5544C39.2533 64.481 40.2607 66.4061 41.3206 68.3202H41.3208C42.4003 70.2701 43.5187 72.1802 44.6668 74.0428ZM60.2949 87.5496C58.1372 85.1153 55.9849 82.4226 53.8829 79.5261C55.9234 79.6098 58.0038 79.6527 60.1181 79.6527C62.2903 79.6527 64.4377 79.6015 66.5513 79.5031C64.476 82.4517 62.3806 85.1486 60.2949 87.5496ZM82.0246 62.3833C83.4491 65.778 84.6498 69.0626 85.6032 72.1857C82.5133 72.9228 79.1771 73.5164 75.6621 73.9575C76.7684 72.1244 77.8605 70.233 78.9336 68.2874C80.0192 66.319 81.05 64.3477 82.0246 62.3833ZM74.99 65.9093C73.3241 68.9295 71.6138 71.8126 69.8776 74.5341C66.7152 74.7706 63.448 74.8923 60.1181 74.8923C56.8017 74.8923 53.5758 74.7846 50.4693 74.5738C48.6631 71.8166 46.9156 68.9249 45.2603 65.9352H45.2607C43.6098 62.9537 42.0903 59.947 40.7135 56.9571C42.09 53.9603 43.6054 50.9502 45.2469 47.974L45.2465 47.9746C46.8923 44.9905 48.6244 42.1129 50.4139 39.3729C53.5834 39.1224 56.8334 38.9917 60.118 38.9917H60.1181C63.4175 38.9917 66.6717 39.1234 69.8402 39.3761C71.6024 42.096 73.3228 44.9643 74.975 47.9488C76.646 50.9669 78.1811 53.9569 79.5692 56.8895C78.1852 59.8724 76.6536 62.8926 74.99 65.9093ZM84.3816 12.7513C87.9503 14.9032 89.3381 23.5816 87.0959 34.9617C86.9529 35.6879 86.7919 36.4275 86.617 37.1771C82.1956 36.1104 77.3944 35.3166 72.3677 34.8235C69.4394 30.4632 66.4048 26.4993 63.3589 23.0675C64.1778 22.2438 64.9956 21.4583 65.8099 20.7171C73.6777 13.5578 81.0312 10.7312 84.3816 12.7513Z" fill="white"/>
<path d="M60.1185 46.8923C65.3741 46.8923 69.6349 51.3472 69.6349 56.8428C69.6349 62.3381 65.3741 66.7932 60.1185 66.7932C54.8628 66.7932 50.6021 62.3381 50.6021 56.8428C50.6021 51.3472 54.8628 46.8923 60.1185 46.8923Z" fill="#53C1DE"/>
</svg>
